# xmcd
#
# Track frame offsets:
#	150
#	10669
#	26386
#	42385
#	70384
#	86068
#	119131
#	134624
#
# Disc length: 2033 seconds
#
# Revision: 0
# Processed by: cddbd v1.5.2PL0 Copyright (c) Steve Scherf et al.
# Submitted via: audiograbber 1.83.01
#
DISCID=6e07ef08
DTITLE=La Mississippi - Buenos Aires Blues
DYEAR=2005
DGENRE=Blues
TTITLE0=Don't Treat Me Bad
TTITLE1=Buenos Aires Blues
TTITLE2=The Creeper Return
TTITLE3=Honey Bee
TTITLE4=You're So Fine
TTITLE5=Sonny Boy Blues
TTITLE6=Help Me
TTITLE7=Kansas City
EXTD=
EXTT0=
EXTT1=
EXTT2=
EXTT3=
EXTT4=
EXTT5=
EXTT6=
EXTT7=
PLAYORDER=
